<svg xmlns="http://www.w3.org/2000/svg" viewBox="0 0 800 600" fill="none">
  <!-- Courbes de niveau type carte topographique - couleur vert forêt discret -->
  <g stroke="#2D5016" stroke-width="0.4" opacity="0.18">
    <path d="M0 200 Q200 150 400 200 T800 200" />
    <path d="M0 220 Q180 180 400 220 T800 220" />
    <path d="M0 240 Q220 200 400 240 T800 240" />
    <path d="M0 260 Q200 230 400 260 T800 260" />
    <path d="M0 280 Q250 250 400 280 T800 280" />
    <path d="M0 300 Q230 280 400 300 T800 300" />
    <path d="M0 320 Q200 300 400 320 T800 320" />
    <path d="M0 340 Q280 310 400 340 T800 340" />
    <path d="M0 360 Q220 350 400 360 T800 360" />
    <path d="M0 380 Q260 360 400 380 T800 380" />
    <path d="M0 400 Q200 390 400 400 T800 400" />
    <path d="M0 180 Q240 120 400 180 T800 180" />
    <path d="M0 160 Q200 100 400 160 T800 160" />
    <path d="M0 140 Q280 80 400 140 T800 140" />
    <path d="M0 420 Q220 410 400 420 T800 420" />
    <path d="M0 440 Q260 430 400 440 T800 440" />
  </g>
  <g stroke="#2D5016" stroke-width="0.35" opacity="0.14">
    <path d="M100 0 Q150 150 100 300 Q100 450 150 600" />
    <path d="M200 0 Q220 120 200 300 Q180 480 200 600" />
    <path d="M300 0 Q280 180 300 300 Q320 420 300 600" />
    <path d="M400 0 Q350 100 400 300 Q450 500 400 600" />
    <path d="M500 0 Q520 200 500 300 Q480 400 500 600" />
    <path d="M600 0 Q580 150 600 300 Q620 450 600 600" />
    <path d="M700 0 Q650 180 700 300 Q750 420 700 600" />
  </g>
  <g stroke="#2D5016" stroke-width="0.3" opacity="0.10">
    <path d="M50 100 Q200 80 350 120 Q500 100 750 100" />
    <path d="M50 250 Q250 220 400 250 Q550 230 750 250" />
    <path d="M50 350 Q200 320 400 350 Q600 330 750 350" />
    <path d="M50 500 Q300 480 400 500 Q500 520 750 500" />
  </g>
</svg>
